<?xml version="1.0" encoding="utf-8"?>
<!DOCTYPE svg PUBLIC "-//W3C//DTD SVG 1.1//EN" "http://www.w3.org/Graphics/SVG/1.1/DTD/svg11.dtd">
<svg version="1.1"
	 id="Ebene_1" xmlns:cc="http://creativecommons.org/ns#" xmlns:dc="http://purl.org/dc/elements/1.1/" xmlns:rdf="http://www.w3.org/1999/02/22-rdf-syntax-ns#"
	 xmlns="http://www.w3.org/2000/svg" xmlns:xlink="http://www.w3.org/1999/xlink" x="0px" y="0px" width="256px" height="256px"
	 viewBox="0 0 256 256" enable-background="new 0 0 256 256" xml:space="preserve">
<path fill="#001E36" d="M47.621,5h160.755C233.05,5,253,25.136,253,50.04v155.921C253,230.867,233.05,251,208.376,251H47.621
	C22.95,251,3,230.865,3,205.961V50.04C3,25.134,22.949,5,47.621,5z"/>
<path fill="#31A8FF" d="M208.277,177.061c3.49,1.727,7.818,4.877,11.673,8.844c-13.388,14.139-49.59,19.768-87.003,16.725
	c25.385,5.172,61.498,11.904,92.628-9.676c2.752,4.342,4.484,9.105,4.146,13.799C229.723,206.75,235.141,183.004,208.277,177.061
	L208.277,177.061z"/>
<path fill="#31A8FF" d="M160.029,48.14c29.091-0.033,52.701,23.16,52.736,51.805c0.033,28.653-23.521,51.903-52.611,51.938
	c-29.094,0.035-52.702-23.162-52.737-51.813c-0.034-28.287,22.956-51.387,51.68-51.922"/>
<path fill="#001E36" d="M172.117,86.527l0.002,0.875h-0.081l-0.005-0.875c-13.191,0.058-23.869,10.162-23.854,22.614
	c0.021,12.481,10.771,22.571,23.994,22.558c13.227-0.019,23.949-10.132,23.932-22.613C196.088,96.604,185.343,86.513,172.117,86.527
	z"/>
<radialGradient id="SVGID_1_" cx="1792.9287" cy="2641.0605" r="128.5796" gradientTransform="matrix(0.25 0 0 0.25 -296.375 -576)" gradientUnits="userSpaceOnUse">
	<stop  offset="0" style="stop-color:#FFFFFF"/>
	<stop  offset="1" style="stop-color:#FFFFFF;stop-opacity:0"/>
</radialGradient>
<circle fill="url(#SVGID_1_)" cx="151.857" cy="84.265" r="32.145"/>
<path fill="#31A8FF" d="M69.045,76.485c18.366-0.021,33.272,14.621,33.295,32.71c0.023,18.089-14.848,32.768-33.215,32.788
	c-18.366,0.021-33.272-14.622-33.295-32.708c-0.02-17.866,14.492-32.45,32.625-32.788"/>
<path fill="#001E36" d="M76.675,100.72l0.001,0.556h-0.049l-0.002-0.554c-8.329,0.036-15.067,6.418-15.057,14.279
	c0.011,7.879,6.795,14.25,15.145,14.239c8.35-0.007,15.119-6.396,15.108-14.275C91.81,107.087,85.025,100.712,76.675,100.72
	L76.675,100.72z"/>
<radialGradient id="SVGID_2_" cx="1441.2402" cy="2701.1602" r="81.5918" gradientTransform="matrix(0.25 0 0 0.25 -296.375 -576)" gradientUnits="userSpaceOnUse">
	<stop  offset="0" style="stop-color:#FFFFFF"/>
	<stop  offset="1" style="stop-color:#FFFFFF;stop-opacity:0"/>
</radialGradient>
<circle fill="url(#SVGID_2_)" cx="63.935" cy="99.29" r="20.398"/>
</svg>
